<?xml version="1.0" encoding="UTF-8"?>
<svg version="1.1" xmlns="http://www.w3.org/2000/svg" width="128" height="128">
<path d="M0 0 C3.54872173 9.52804625 5.60266855 19.15598827 7.453125 29.11328125 C7.76074665 30.73856249 8.06892371 32.36373869 8.37762451 33.98881531 C9.01812882 37.3705568 9.65285834 40.75331337 10.28320312 44.13696289 C11.08899053 48.46048338 11.90799505 52.78137317 12.73112869 57.10162067 C13.36732945 60.44739328 13.99723993 63.79432603 14.62520599 67.14165306 C14.92485081 68.73549824 15.22626084 70.32901267 15.52951813 71.92217445 C15.95206855 74.14792242 16.36627166 76.37507041 16.77832031 78.6027832 C17.01496399 79.86564651 17.25160767 81.12850983 17.49542236 82.42964172 C18.81623758 91.77564363 18.81623758 91.77564363 16 96 C15.91647217 99.36290296 16.00397129 102.66246175 16.16601562 106.01953125 C16.28948503 110.59215674 16.08072669 113.52718083 13 117 C6.63631719 120.48090849 0.12948516 120.92106912 -7.0078125 121.60546875 C-8.28308807 121.73440018 -9.55836365 121.8633316 -10.87228394 121.99617004 C-13.57985779 122.26832748 -16.2880964 122.53195967 -18.99707031 122.78979492 C-21.71093651 123.04875742 -24.42324114 123.31889381 -27.13476562 123.60131836 C-41.85246708 125.12823468 -56.50829677 126.27515432 -71.3046875 126.42578125 C-73.15684372 126.4601252 -73.15684372 126.4601252 -75.04641724 126.49516296 C-76.74796463 126.49236076 -76.74796463 126.49236076 -78.48388672 126.48950195 C-79.97841873 126.49407158 -79.97841873 126.49407158 -81.50314331 126.49873352 C-84 126 -84 126 -85.74812317 124.41706848 C-87.38503308 121.25659513 -87.93511307 118.34551199 -88.54614258 114.83740234 C-88.669446 114.13429617 -88.79274942 113.43118999 -88.91978931 112.70677757 C-90.28621466 104.70537716 -91.29199677 96.65884021 -92.26171875 88.6015625 C-92.45893663 86.98925447 -92.6564372 85.37698099 -92.85420227 83.76473999 C-93.26338789 80.41892209 -93.66882109 77.07267724 -94.0715332 73.72607422 C-94.58498282 69.46225446 -95.1085999 65.19975353 -95.63507366 60.9375248 C-96.0434488 57.62128022 -96.44613205 54.3043628 -96.84717751 50.98722458 C-97.03793201 49.41551137 -97.23047313 47.8440138 -97.42493248 46.27275467 C-100.90201337 18.09429524 -100.90201337 18.09429524 -94.75 10.0625 C-89.75982428 6.31986821 -84.47772886 5.65708588 -78.39331055 5.22216797 C-77.65586609 5.16335449 -76.91842163 5.10454102 -76.15863037 5.04394531 C-73.73517279 4.85260935 -71.31104175 4.67219796 -68.88671875 4.4921875 C-67.19045197 4.36109054 -65.49422955 4.22941832 -63.79804993 4.09719849 C-60.24697427 3.82198022 -56.69556234 3.5518361 -53.14379883 3.28564453 C-48.61091645 2.94578494 -44.07884647 2.59627075 -39.54696941 2.24328423 C-36.04429114 1.97104675 -32.54133698 1.70251285 -29.03827858 1.435215 C-27.36821289 1.30762308 -25.69820691 1.17924685 -24.028265 1.05004501 C-8.01807629 -0.18279076 -8.01807629 -0.18279076 0 0 Z " fill="#AB3131" transform="translate(100,2)"/>
<path d="M0 0 C0.17011554 6.80462141 -0.28854238 12.41473745 -2 19 C-12.43968447 20.17800966 -22.87983025 21.35183448 -33.32058048 22.52036285 C-38.16894994 23.06312435 -43.01715061 23.60730991 -47.86499023 24.15478516 C-52.54599036 24.68336529 -57.2274011 25.20815864 -61.90911674 25.73036194 C-63.69257083 25.92995731 -65.47587446 26.130902 -67.25901985 26.33323669 C-69.76221647 26.61703954 -72.26591172 26.89598054 -74.76977539 27.17382812 C-75.50201828 27.25798477 -76.23426117 27.34214142 -76.98869324 27.42884827 C-81.34538493 27.90618567 -85.61785389 28.16408835 -90 28 C-91.60260138 26.39739862 -91.20898122 24.71501415 -91.25 22.5 C-91.27578125 21.6853125 -91.3015625 20.870625 -91.328125 20.03125 C-90.86932888 15.79284776 -89.45525306 11.99042242 -88 8 C-76.00255041 6.64332085 -64.00244935 5.31169507 -52 4 C-50.68159119 3.85570557 -50.68159119 3.85570557 -49.33654785 3.70849609 C-44.08751878 3.13514765 -38.83762903 2.5708351 -33.5864563 2.01745605 C-31.9231778 1.84120344 -30.26014341 1.66262948 -28.59738159 1.48156738 C-19.01512034 0.44053159 -9.6513832 -0.26883481 0 0 Z " fill="#D6D7D7" transform="translate(112,93)"/>
<path d="M0 0 C2.7515322 2.7515322 2.77519757 5.03076625 3.49633789 8.84887695 C3.63157364 9.55314819 3.76680939 10.25741943 3.90614319 10.98303223 C4.35237269 13.31677638 4.78751804 15.65244587 5.22265625 17.98828125 C5.53059934 19.61025312 5.83923821 21.23209304 6.14854431 22.85380554 C6.96220543 27.1298966 7.76653061 31.40769252 8.56890869 35.68591309 C9.38487376 40.02797327 10.20931269 44.36842231 11.03320312 48.70898438 C12.48302919 56.35162259 13.92518874 63.99567337 15.36170959 71.64082336 C15.74777984 73.67262289 16.14774467 75.70194336 16.57371521 77.72575378 C17.46416997 82.47636517 17.7125779 85.93113314 15 90 C14.91647217 93.36290296 15.00397129 96.66246175 15.16601562 100.01953125 C15.28948503 104.59215674 15.08072669 107.52718083 12 111 C5.63631719 114.48090849 -0.87051484 114.92106912 -8.0078125 115.60546875 C-9.28308807 115.73440018 -10.55836365 115.8633316 -11.87228394 115.99617004 C-14.57985779 116.26832748 -17.2880964 116.53195967 -19.99707031 116.78979492 C-22.71093651 117.04875742 -25.42324114 117.31889381 -28.13476562 117.60131836 C-42.85246708 119.12823468 -57.50829677 120.27515432 -72.3046875 120.42578125 C-74.15684372 120.4601252 -74.15684372 120.4601252 -76.04641724 120.49516296 C-77.74796463 120.49236076 -77.74796463 120.49236076 -79.48388672 120.48950195 C-80.97841873 120.49407158 -80.97841873 120.49407158 -82.50314331 120.49873352 C-85 120 -85 120 -86.74812317 118.41706848 C-88.38503308 115.25659513 -88.93511307 112.34551199 -89.54614258 108.83740234 C-89.669446 108.13429617 -89.79274942 107.43118999 -89.91978931 106.70677757 C-91.28621466 98.70537716 -92.29199677 90.65884021 -93.26171875 82.6015625 C-93.45893663 80.98925447 -93.6564372 79.37698099 -93.85420227 77.76473999 C-94.26338789 74.41892209 -94.66882109 71.07267724 -95.0715332 67.72607422 C-95.58498282 63.46225446 -96.1085999 59.19975353 -96.63507366 54.9375248 C-97.0434488 51.62128022 -97.44613205 48.3043628 -97.84717751 44.98722458 C-98.03793201 43.41551137 -98.23047313 41.8440138 -98.42493248 40.27275467 C-101.61121045 14.45097852 -101.61121045 14.45097852 -98 7 C-96.35779449 5.96031792 -94.6919881 4.95653231 -93 4 C-93.01907913 4.90008789 -93.03815826 5.80017578 -93.05781555 6.72753906 C-93.170035 16.18093242 -92.50070931 25.35757781 -91.35546875 34.75 C-91.18257895 36.22037512 -91.01042138 37.6908365 -90.83894348 39.16137695 C-90.38916363 43.00023726 -89.92886421 46.83776364 -89.46636963 50.67510986 C-89.00632329 54.51044041 -88.55762457 58.34709773 -88.10742188 62.18359375 C-87.25000106 69.47155139 -86.37291479 76.75697666 -85.48284912 84.04101562 C-85.17146797 86.59409707 -84.86241408 89.14746394 -84.55621338 91.70117188 C-84.16611033 94.94759654 -83.76650635 98.19268298 -83.36328125 101.4375 C-83.25308151 102.36651123 -83.14288177 103.29552246 -83.02934265 104.25268555 C-82.92209366 105.09613525 -82.81484467 105.93958496 -82.7043457 106.80859375 C-82.57150932 107.88838501 -82.57150932 107.88838501 -82.43598938 108.98999023 C-81.95018926 111.22963878 -81.10090138 112.99848254 -80 115 C-69.62962004 114.37913491 -59.30873892 113.48962868 -48.9765625 112.40625 C-47.49500852 112.25290519 -46.01343041 112.09979333 -44.53182983 111.94689941 C-40.67843585 111.5485877 -36.82539153 111.14698928 -32.97241211 110.74468994 C-29.8352035 110.41767306 -26.69775804 110.0929641 -23.56029701 109.76837921 C-17.04857804 109.09470072 -10.53704999 108.41918819 -4.02587891 107.74023438 C-2.88309479 107.62111694 -1.74031067 107.50199951 -0.56289673 107.37927246 C3.62623 106.93333745 7.81297169 106.46522537 12 106 C12 98.74 12 91.48 12 84 C12.99 84 13.98 84 15 84 C14.82682755 83.0656311 14.65365509 82.13126221 14.47523499 81.1685791 C12.83963191 72.34182949 11.20647857 63.51462965 9.57569218 54.68698883 C8.73731169 50.14917154 7.89808375 45.61151447 7.05688477 41.07421875 C6.2443709 36.69146905 5.43412801 32.30830495 4.62542534 27.92485046 C4.31725519 26.25665993 4.00828167 24.58861759 3.69847298 22.92073059 C3.2630495 20.57580211 2.83054482 18.23035204 2.39868164 15.88476562 C2.27136658 15.2028717 2.14405151 14.52097778 2.01287842 13.81842041 C1.17111716 9.22389134 0.54546078 4.63674951 0 0 Z " fill="#010000" transform="translate(101,8)"/>
<path d="M0 0 C0.05513412 1.66627552 0.09329293 3.33311412 0.125 5 C0.14820312 5.928125 0.17140625 6.85625 0.1953125 7.8125 C-0.04572654 11.74625707 -1.00858573 15.18528488 -2 19 C-12.43968447 20.17800966 -22.87983025 21.35183448 -33.32058048 22.52036285 C-38.16894994 23.06312435 -43.01715061 23.60730991 -47.86499023 24.15478516 C-52.54599036 24.68336529 -57.2274011 25.20815864 -61.90911674 25.73036194 C-63.69257083 25.92995731 -65.47587446 26.130902 -67.25901985 26.33323669 C-69.76221647 26.61703954 -72.26591172 26.89598054 -74.76977539 27.17382812 C-75.50201828 27.25798477 -76.23426117 27.34214142 -76.98869324 27.42884827 C-81.34538493 27.90618567 -85.61785389 28.16408835 -90 28 C-91 27 -91 27 -91.25 23.3125 C-91.20608127 19.24269771 -90.20313778 16.47417881 -88 13 C-84.2995103 11.14975515 -79.89301648 11.56260995 -75.8125 11.375 C-74.41161133 11.29765625 -74.41161133 11.29765625 -72.98242188 11.21875 C-67.81960889 10.97169069 -63.08526352 11.05750303 -58 12 C-58.33 12.99 -58.66 13.98 -59 15 C-67.91 15.99 -67.91 15.99 -77 17 C-77 17.66 -77 18.32 -77 19 C-77.66 19.66 -78.32 20.32 -79 21 C-78.15429443 20.7525 -78.15429443 20.7525 -77.29150391 20.5 C-74.87446428 19.97260844 -72.80536874 19.93610528 -70.3359375 20 C-65.35751424 20.0510047 -60.56121202 19.59415505 -55.625 19 C-45.39651206 17.85980718 -35.27957477 17.80315708 -25 18 C-28.79039366 15.87000003 -31.65736138 15.83297544 -36 16 C-35.67 15.01 -35.34 14.02 -35 13 C-26.09 12.01 -26.09 12.01 -17 11 C-17.495 8.03 -17.495 8.03 -18 5 C-13.545 4.505 -13.545 4.505 -9 4 C-9.99 3.01 -9.99 3.01 -11 2 C-9.35440244 1.66550467 -7.70851502 1.33243501 -6.0625 1 C-5.14597656 0.814375 -4.22945313 0.62875 -3.28515625 0.4375 C-1 0 -1 0 0 0 Z " fill="#DCDBDB" transform="translate(112,93)"/>
<path d="M0 0 C0.33 0 0.66 0 1 0 C1.33 2.64 1.66 5.28 2 8 C2.33 8 2.66 8 3 8 C4.79418176 18.57371116 6.34669963 29.10661859 7.26513672 39.79589844 C7.65531818 44.16776695 8.21741839 48.45889075 8.96484375 52.78515625 C10.06447946 59.1673059 10.81214017 65.56202533 11.5 72 C11.62673096 73.16249268 11.75346191 74.32498535 11.8840332 75.52270508 C12.98366909 85.67570799 14.01482372 95.83529887 15 106 C23.94276998 105.57732379 32.80506016 104.8620244 41.6953125 103.80859375 C42.62462585 103.69859039 43.55393921 103.58858704 44.51141357 103.47525024 C48.34971104 103.01699573 52.18722381 102.55272785 56.02392578 102.08129883 C69.74687605 100.40394617 83.2301771 98.79682834 97 101 C97 101.33 97 101.66 97 102 C88.39329995 102.89868753 79.78628904 103.79432357 71.17888546 104.68624783 C67.1805463 105.10066034 63.18231479 105.51605607 59.18432617 105.93383789 C55.31364594 106.33827734 51.44268727 106.73995254 47.57153511 107.13984871 C46.10734753 107.29156598 44.6432564 107.44421765 43.17927361 107.59789848 C33.46177592 108.61717064 23.75285354 109.4181594 14 110 C11.69964693 106.5360265 10.566419 103.87842245 10.08032227 99.75537109 C9.95318848 98.72634674 9.82605469 97.69732239 9.69506836 96.63711548 C9.50763062 94.97209488 9.50763062 94.97209488 9.31640625 93.2734375 C9.17589844 92.10904144 9.03539062 90.94464539 8.890625 89.7449646 C8.43637223 85.95624635 7.99902644 82.16579807 7.5625 78.375 C7.25535567 75.77496103 6.94732879 73.17502616 6.63842773 70.57519531 C6.02824043 65.42231442 5.4251188 60.26868348 4.828125 55.11425781 C4.22159667 49.88338623 3.60054196 44.6545748 2.96400452 39.42727661 C2.577165 36.24859087 2.19674422 33.06916385 1.81832886 29.88946533 C1.65076284 28.48813131 1.48118095 27.08703653 1.30935669 25.68621826 C0.25949467 17.08059707 -0.20481357 8.6695309 0 0 Z " fill="#822121" transform="translate(7,14)"/>
<path d="M0 0 C0.66 4.62 1.32 9.24 2 14 C2.66 13.67 3.32 13.34 4 13 C10.94263424 12.31711794 10.94263424 12.31711794 15 14.9375 C17.33246163 18.50908187 17.75161423 20.64710888 17.46484375 24.84375 C17 27 17 27 15.1875 30 C10.6313899 32.85873575 6.29054748 32.89808052 1 33 C-4 9.2 -4 9.2 -4 1 C-2 0 -2 0 0 0 Z " fill="#F8EBEB" transform="translate(60,34)"/>
<path d="M0 0 C0.66 0 1.32 0 2 0 C4.25894584 14.93941492 6.43641782 29.88194546 8.33984375 44.87109375 C8.74437011 48.05489875 9.16911318 51.23386784 9.62890625 54.41015625 C10.6196804 61.33171833 11.29627863 68.00453243 11 75 C9 72 9 72 8 69 C8 71.64 8 74.28 8 77 C5.60573043 73.17535478 5.31861368 69.05057722 4.81640625 64.66796875 C4.71623199 63.84726898 4.61605774 63.02656921 4.5128479 62.18099976 C4.18915063 59.51728217 3.8756909 56.85247146 3.5625 54.1875 C3.23339274 51.44982465 2.9020573 48.71242444 2.57069397 45.97502136 C2.3521114 44.16703718 2.13444624 42.35894184 1.91770935 40.55073547 C0.9707188 32.6683822 -0.06407128 24.79955071 -1.18725586 16.94018555 C-1.91863108 11.57766291 -2.10296221 6.41364479 -2 1 C-1.67 1 -1.34 1 -1 1 C-0.67 2.98 -0.34 4.96 0 7 C0 4.69 0 2.38 0 0 Z " fill="#BF5F5D" transform="translate(13,9)"/>
<path d="M0 0 C0 0.33 0 0.66 0 1 C-2.31 1 -4.62 1 -7 1 C-7 1.66 -7 2.32 -7 3 C-8.17357056 3.12060791 -8.17357056 3.12060791 -9.37084961 3.24365234 C-12.89414676 3.61115942 -16.41575897 3.99288099 -19.9375 4.375 C-21.16919922 4.50132813 -22.40089844 4.62765625 -23.66992188 4.7578125 C-24.83974609 4.88671875 -26.00957031 5.015625 -27.21484375 5.1484375 C-28.84087524 5.32125244 -28.84087524 5.32125244 -30.49975586 5.49755859 C-31.32483643 5.66336426 -32.14991699 5.82916992 -33 6 C-33.33 6.66 -33.66 7.32 -34 8 C-36.72813639 8.48354277 -39.3748992 8.84447132 -42.125 9.125 C-42.87265625 9.21136719 -43.6203125 9.29773438 -44.390625 9.38671875 C-48.95450132 9.887632 -53.40991782 10.08522699 -58 10 C-58 9.67 -58 9.34 -58 9 C-66.00694114 9.5982929 -74.00605711 10.2470635 -82 11 C-82.28875 12.134375 -82.5775 13.26875 -82.875 14.4375 C-83.24625 15.613125 -83.6175 16.78875 -84 18 C-84.66 18.33 -85.32 18.66 -86 19 C-85.69217504 17.35328588 -85.37860766 15.70764424 -85.0625 14.0625 C-84.88847656 13.14597656 -84.71445313 12.22945312 -84.53515625 11.28515625 C-84 9 -84 9 -83 8 C-80.80630386 7.67303099 -78.60328582 7.40850023 -76.3984375 7.16796875 C-75.70616058 7.09135513 -75.01388367 7.01474152 -74.30062866 6.93580627 C-71.99256163 6.68178355 -69.68383736 6.43441618 -67.375 6.1875 C-65.76723177 6.012887 -64.15948468 5.83807936 -62.55175781 5.66308594 C-58.26055826 5.19791054 -53.96862039 4.73993436 -49.6763916 4.28436279 C-46.9843156 3.99833356 -44.29243869 3.71048524 -41.60058594 3.42236328 C-37.17186909 2.9491499 -32.74258512 2.48161667 -28.31280518 2.01846313 C-26.61504611 1.84061672 -24.91741177 1.66157529 -23.21990967 1.48129272 C-20.82931224 1.22813975 -18.4382029 0.98052007 -16.046875 0.734375 C-15.3492807 0.65957413 -14.6516864 0.58477325 -13.93295288 0.50770569 C-9.25849525 0.03469804 -4.69069037 -0.06156449 0 0 Z " fill="#9C9A9A" transform="translate(107,93)"/>
<path d="M0 0 C2.66985303 2.36635028 4.0138024 4.748703 5.5234375 7.96484375 C5.9875 8.92970703 6.4515625 9.89457031 6.9296875 10.88867188 C7.89028641 12.91501634 8.84605104 14.94365985 9.796875 16.97460938 C13.14195899 23.9994085 13.14195899 23.9994085 19 29 C15.37 29.33 11.74 29.66 8 30 C8.66 29.67 9.32 29.34 10 29 C8.515 24.05 8.515 24.05 7 19 C2.05 19.495 2.05 19.495 -3 20 C-3.66 23.3 -4.32 26.6 -5 30 C-4.01 30 -3.02 30 -2 30 C-2 30.66 -2 31.32 -2 32 C-4.97 32 -7.94 32 -11 32 C-10.01 31.01 -9.02 30.02 -8 29 C-7.16983379 26.70128538 -7.16983379 26.70128538 -6.68359375 24.10546875 C-6.47669922 23.14962891 -6.26980469 22.19378906 -6.05664062 21.20898438 C-5.85232422 20.21189453 -5.64800781 19.21480469 -5.4375 18.1875 C-2.022699 2.022699 -2.022699 2.022699 0 0 Z " fill="#F1D6D5" transform="translate(40,38)"/>
<path d="M0 0 C0.02725341 1.7290774 0.04650987 3.45828176 0.0625 5.1875 C0.07410156 6.15042969 0.08570313 7.11335938 0.09765625 8.10546875 C0.00486622 10.85576513 -0.37888315 13.32479591 -1 16 C-6.75 15.125 -6.75 15.125 -9 14 C-11.02613992 14.04756269 -11.02613992 14.04756269 -13.32421875 14.33984375 C-14.18853516 14.43330078 -15.05285156 14.52675781 -15.94335938 14.62304688 C-16.84892578 14.72681641 -17.75449219 14.83058594 -18.6875 14.9375 C-24.49257278 15.59189002 -30.15462401 16.13593898 -36 16 C-35.67 15.01 -35.34 14.02 -35 13 C-26.09 12.01 -26.09 12.01 -17 11 C-17.33 9.02 -17.66 7.04 -18 5 C-13.545 4.505 -13.545 4.505 -9 4 C-9.66 3.34 -10.32 2.68 -11 2 C-9.35440244 1.66550467 -7.70851502 1.33243501 -6.0625 1 C-4.68771484 0.7215625 -4.68771484 0.7215625 -3.28515625 0.4375 C-1 0 -1 0 0 0 Z " fill="#E7E7E7" transform="translate(112,93)"/>
<path d="M0 0 C0.33 0 0.66 0 1 0 C1.66 3.63 2.32 7.26 3 11 C3.66 10.34 4.32 9.68 5 9 C5.66 15.93 6.32 22.86 7 30 C8.32 30.33 9.64 30.66 11 31 C8.69 31.33 6.38 31.66 4 32 C3.01 35.96 2.02 39.92 1 44 C0.67 44 0.34 44 0 44 C-0.02505615 43.30438965 -0.0501123 42.6087793 -0.07592773 41.89208984 C-0.19245974 38.71956545 -0.31492568 35.54729645 -0.4375 32.375 C-0.47681641 31.28058594 -0.51613281 30.18617187 -0.55664062 29.05859375 C-0.59853516 27.99511719 -0.64042969 26.93164062 -0.68359375 25.8359375 C-0.72025146 24.86188965 -0.75690918 23.8878418 -0.79467773 22.88427734 C-1.00896304 19.87409112 -1.48048736 16.97102811 -2 14 C-2.11196073 11.32189925 -2.04625299 8.68267314 -2 6 C-1.67 6 -1.34 6 -1 6 C-0.67 7.98 -0.34 9.96 0 12 C0 8.04 0 4.08 0 0 Z " fill="#AD4B4B" transform="translate(20,70)"/>
<path d="M0 0 C2.61451363 2.86753107 2.97230687 4.77054266 3.4375 8.625 C3 12 3 12 1.3125 14 C-1.6266049 15.27096428 -3.01582898 15.09943143 -6 14 C-8.18994248 10.71508627 -8.35277339 9.16904361 -8.625 5.3125 C-8.69976562 4.31863281 -8.77453125 3.32476562 -8.8515625 2.30078125 C-8.90054688 1.54152344 -8.94953125 0.78226563 -9 0 C-5.78176644 -1.60911678 -3.4113678 -0.83787981 0 0 Z " fill="#B02929" transform="translate(71,50)"/>
<path d="M0 0 C0.33 0.33 0.66 0.66 1 1 C3.32817964 1.36760731 5.6618385 1.70241581 8 2 C8 2.99 8 3.98 8 5 C6.94039062 5.13277344 5.88078125 5.26554687 4.7890625 5.40234375 C3.40101721 5.58053875 2.01299769 5.7589346 0.625 5.9375 C-0.07367188 6.02451172 -0.77234375 6.11152344 -1.4921875 6.20117188 C-5.36783575 6.66318128 -5.36783575 6.66318128 -9 8 C-10.85361708 8.04514136 -12.70873663 8.03867042 -14.5625 8 C-16.37460781 7.96229685 -18.18809744 7.95346639 -20 8 C-20.33 8.33 -20.66 8.66 -21 9 C-23.33297433 9.04092937 -25.66705225 9.04241723 -28 9 C-27.67 7.35 -27.34 5.7 -27 4 C-25.80761719 3.87882812 -24.61523438 3.75765625 -23.38671875 3.6328125 C-21.82026592 3.46397327 -20.25386212 3.29467868 -18.6875 3.125 C-17.90181641 3.04636719 -17.11613281 2.96773438 -16.30664062 2.88671875 C-15.54931641 2.80292969 -14.79199219 2.71914062 -14.01171875 2.6328125 C-13.31522217 2.55949707 -12.61872559 2.48618164 -11.90112305 2.41064453 C-0.58923364 -0.0327352 -0.58923364 -0.0327352 0 0 Z " fill="#D0D0D0" transform="translate(56,106)"/>
<path d="M0 0 C-1.134375 0.28875 -2.26875 0.5775 -3.4375 0.875 C-4.613125 1.24625 -5.78875 1.6175 -7 2 C-7.33 2.66 -7.66 3.32 -8 4 C-8.99 4.66 -9.98 5.32 -11 6 C-11 7.32 -11 8.64 -11 10 C-18.82072047 11.5960654 -26.2236282 10.22518358 -34 9 C-34 8.67 -34 8.34 -34 8 C-30.535 7.505 -30.535 7.505 -27 7 C-29.31 7 -31.62 7 -34 7 C-34.33 6.01 -34.66 5.02 -35 4 C-32.31306278 3.66148822 -29.62559711 3.329064 -26.9375 3 C-25.80924805 2.85691406 -25.80924805 2.85691406 -24.65820312 2.7109375 C-20.06578683 2.15428098 -15.6257865 1.90170972 -11 2 C-11 1.34 -11 0.68 -11 0 C-3.57142857 -1.28571429 -3.57142857 -1.28571429 0 0 Z " fill="#DADADA" transform="translate(111,94)"/>
<path d="M0 0 C0 0.33 0 0.66 0 1 C-5.47609324 1.57756271 -10.95296299 2.14687474 -16.43066406 2.70898438 C-18.28896477 2.90080066 -20.14704564 3.09476058 -22.00488281 3.29101562 C-48.57668796 6.09406934 -48.57668796 6.09406934 -58 4 C-58 3.67 -58 3.34 -58 3 C-53.1305569 2.41995546 -48.25999277 1.85084048 -43.38818359 1.29101562 C-41.73745884 1.09986895 -40.08705286 0.90594502 -38.43701172 0.70898438 C-25.58286819 -0.82257315 -12.88156934 -2.06105109 0 0 Z " fill="#863030" transform="translate(104,115)"/>
<path d="M0 0 C-3.39019236 2.26012824 -5.12239936 2.41038713 -9.1328125 2.77783203 C-10.39843018 2.89780548 -11.66404785 3.01777893 -12.96801758 3.14138794 C-14.35364962 3.26385534 -15.73931126 3.38598828 -17.125 3.5078125 C-18.55173183 3.63887379 -19.97840764 3.77054628 -21.4050293 3.90280151 C-24.40058464 4.17866068 -27.39658994 4.44869258 -30.39306641 4.71435547 C-34.20531097 5.05257511 -38.016355 5.40255954 -41.82714844 5.75671577 C-44.77818766 6.0300467 -47.72967854 6.2982146 -50.68133545 6.564785 C-52.08465081 6.69188849 -53.48785323 6.82024618 -54.89093018 6.94995499 C-62.95028738 7.69077245 -70.90515293 8.18880764 -79 8 C-79 7.67 -79 7.34 -79 7 C-72.565 6.505 -72.565 6.505 -66 6 C-66 5.34 -66 4.68 -66 4 C-64.87851563 4.01740234 -64.87851563 4.01740234 -63.734375 4.03515625 C-62.74953125 4.04417969 -61.7646875 4.05320312 -60.75 4.0625 C-59.77546875 4.07410156 -58.8009375 4.08570313 -57.796875 4.09765625 C-55.32173793 4.01123387 -53.37116206 3.63264198 -51 3 C-48.66666667 3 -46.33333333 3 -44 3 C-43.36835937 2.83371094 -42.73671875 2.66742187 -42.0859375 2.49609375 C-39.66607059 1.92058233 -37.6119673 1.97763316 -35.125 2.0625 C-27.94658884 2.14245755 -20.87668717 1.42603303 -13.74267578 0.71118164 C-9.13955829 0.25574521 -4.63352713 -0.12397397 0 0 Z " fill="#C76A69" transform="translate(99,21)"/>
<path d="M0 0 C2.31 0 4.62 0 7 0 C7 0.66 7 1.32 7 2 C7.97066406 1.67257812 8.94132812 1.34515625 9.94140625 1.0078125 C14.3010926 -0.23781217 18.43375972 -0.2253404 22.9375 -0.125 C23.71673828 -0.11597656 24.49597656 -0.10695313 25.29882812 -0.09765625 C27.19935447 -0.07433691 29.09972008 -0.03847586 31 0 C30.34 1.98 29.68 3.96 29 6 C28.34 5.34 27.68 4.68 27 4 C25.32236399 4.27281184 23.65756001 4.62398974 22 5 C19.15069243 5.27119135 16.29548178 5.4128546 13.4375 5.5625 C12.30538086 5.62727539 12.30538086 5.62727539 11.15039062 5.69335938 C7.75947922 5.88157736 4.39716842 6 1 6 C0.67 4.02 0.34 2.04 0 0 Z " fill="#C66564" transform="translate(53,11)"/>
<path d="M0 0 C3 1 3 1 4.27099609 3.06958008 C4.68430176 3.96056396 5.09760742 4.85154785 5.5234375 5.76953125 C5.9875 6.74083984 6.4515625 7.71214844 6.9296875 8.71289062 C7.8873459 10.76667965 8.84309977 12.82135789 9.796875 14.87695312 C13.11917996 21.965236 13.11917996 21.965236 19 27 C15.37 27.33 11.74 27.66 8 28 C8.66 27.67 9.32 27.34 10 27 C9.46260944 25.34579778 8.89413992 23.70166705 8.3125 22.0625 C7.99925781 21.14597656 7.68601562 20.22945312 7.36328125 19.28515625 C6.18742244 16.73467787 6.18742244 16.73467787 3.35546875 16.18359375 C2.18951172 16.09271484 2.18951172 16.09271484 1 16 C2.32 15.67 3.64 15.34 5 15 C4.55527344 14.16855469 4.11054687 13.33710937 3.65234375 12.48046875 C3.08644531 11.39378906 2.52054688 10.30710937 1.9375 9.1875 C1.08478516 7.56908203 1.08478516 7.56908203 0.21484375 5.91796875 C-1 3 -1 3 0 0 Z " fill="#FAF1F1" transform="translate(40,40)"/>
<path d="M0 0 C0.66 0 1.32 0 2 0 C3.99545151 13.19680958 5.96923761 26.39726409 7.75 39.625 C7.94106323 40.99797241 7.94106323 40.99797241 8.13598633 42.39868164 C8.87290189 47.98364439 9.11427441 53.36627171 9 59 C7.00370552 56.00555829 6.62058977 54.71753678 6.13037109 51.27246094 C5.99037689 50.31426453 5.85038269 49.35606812 5.70614624 48.36883545 C5.56335236 47.3344635 5.42055847 46.30009155 5.2734375 45.234375 C5.04462387 43.63423553 5.04462387 43.63423553 4.81118774 42.00177002 C4.4899058 39.74274928 4.17240923 37.48318745 3.85839844 35.22314453 C3.37865344 31.7762494 2.88561766 28.33145356 2.390625 24.88671875 C2.07993305 22.69021663 1.7700122 20.49360527 1.4609375 18.296875 C1.31409515 17.27059998 1.16725281 16.24432495 1.01596069 15.18695068 C0.31136224 10.07042478 -0.16879018 5.16479893 0 0 Z " fill="#D48786" transform="translate(13,9)"/>
<path d="M0 0 C1.39439664 0.06665376 2.79169875 0.08538199 4.1875 0.0625 C5.445625 0.041875 6.70375 0.02125 8 0 C8 0.33 8 0.66 8 1 C6.2984375 1.2165625 6.2984375 1.2165625 4.5625 1.4375 C1.19222799 1.61171478 1.19222799 1.61171478 0 3 C2.64 3.33 5.28 3.66 8 4 C8 4.33 8 4.66 8 5 C-9.85649203 7.29612756 -9.85649203 7.29612756 -18 7 C-17.67 5.35 -17.34 3.7 -17 2 C-15.02 1.67 -13.04 1.34 -11 1 C-13.31 0.67 -15.62 0.34 -18 0 C-18 -0.33 -18 -0.66 -18 -1 C-11.57983003 -2.01371105 -6.27537872 -2.09179291 0 0 Z " fill="#BBBBBB" transform="translate(84,100)"/>
<path d="M0 0 C0.33 0.99 0.66 1.98 1 3 C0.37351562 2.96519531 -0.25296875 2.93039063 -0.8984375 2.89453125 C-1.71570313 2.86746094 -2.53296875 2.84039062 -3.375 2.8125 C-4.59316406 2.76029297 -4.59316406 2.76029297 -5.8359375 2.70703125 C-6.55007812 2.80371094 -7.26421875 2.90039062 -8 3 C-10.35618542 5.88599388 -10.35618542 5.88599388 -9.8125 9.5 C-9.22728871 12.85835631 -9.22728871 12.85835631 -7.8125 14.9375 C-5.10926937 16.52215244 -3.07683198 16.31396245 0 16 C2.30230766 15.10168984 2.30230766 15.10168984 4 14 C2.63016497 17.16115776 2.0109362 17.9927092 -1 20 C-4.00574088 20.46755969 -6.05043034 20.59128296 -8.6875 18.94921875 C-10.88625037 17.15744862 -12.72049113 15.55901775 -14 13 C-14.25356203 9.11204889 -14.32836566 6.21536211 -12 3 C-8.0436971 -0.16504232 -4.97333608 -0.29254918 0 0 Z " fill="#F4E3E1" transform="translate(95,44)"/>
<path d="M0 0 C2.64624284 0.14021805 5.29184578 0.28689776 7.9375 0.4375 C9.06961914 0.49647461 9.06961914 0.49647461 10.22460938 0.55664062 C15.88671875 0.88671875 15.88671875 0.88671875 17 2 C18.33808524 1.90740928 19.67178382 1.7492804 21 1.5625 C25.70530672 0.97339258 30.26076742 0.92477409 35 1 C35 1.99 35 2.98 35 4 C30.78866447 5.02361309 26.83810136 5.11489283 22.51171875 5.09765625 C21.80852005 5.0962413 21.10532135 5.09482635 20.3808136 5.09336853 C18.14966456 5.08780109 15.91861836 5.07525475 13.6875 5.0625 C12.16862125 5.05748079 10.64974091 5.05291862 9.13085938 5.04882812 C5.42053988 5.03784236 1.71027999 5.02060034 -2 5 C-1.01 4.01 -0.02 3.02 1 2 C0.67 1.34 0.34 0.68 0 0 Z M-8 5 C-6.02 5 -4.04 5 -2 5 C-2 5.33 -2 5.66 -2 6 C-3.98 6 -5.96 6 -8 6 C-8 5.67 -8 5.34 -8 5 Z " fill="#B1B1B1" transform="translate(57,107)"/>
<path d="M0 0 C-0.33 0.99 -0.66 1.98 -1 3 C-3.85366354 3.33821197 -6.70780596 3.6706978 -9.5625 4 C-10.76229492 4.14308594 -10.76229492 4.14308594 -11.98632812 4.2890625 C-16.69452167 4.82714176 -21.26147265 5.10176703 -26 5 C-26.5625 3.0625 -26.5625 3.0625 -27 1 C-22.19693307 -3.80306693 -6.28423793 -1.06965752 0 0 Z " fill="#E1E1E1" transform="translate(54,105)"/>
<path d="M0 0 C0.99 0.33 1.98 0.66 3 1 C5.73865287 1.07051114 8.45027588 1.09357765 11.1875 1.0625 C12.31188477 1.05573242 12.31188477 1.05573242 13.45898438 1.04882812 C15.30602383 1.03706354 17.15302213 1.01912865 19 1 C19.33 2.32 19.66 3.64 20 5 C12.7109102 6.91318843 6.45067301 7.04819354 -1 6 C-1.33 4.35 -1.66 2.7 -2 1 C-1.34 0.67 -0.68 0.34 0 0 Z " fill="#D17877" transform="translate(32,13)"/>
<path d="M0 0 C0.72256485 0.00141495 1.4451297 0.0028299 2.18959045 0.00428772 C4.4714899 0.009834 6.75328704 0.02237605 9.03515625 0.03515625 C10.59309753 0.04017821 12.15104037 0.04473989 13.70898438 0.04882812 C17.50524706 0.05978575 21.30143438 0.07701253 25.09765625 0.09765625 C25.09765625 0.42765625 25.09765625 0.75765625 25.09765625 1.09765625 C23.39609375 1.31421875 23.39609375 1.31421875 21.66015625 1.53515625 C18.28988424 1.70937103 18.28988424 1.70937103 17.09765625 3.09765625 C14.76468192 3.13858562 12.430604 3.14007348 10.09765625 3.09765625 C10.09765625 2.76765625 10.09765625 2.43765625 10.09765625 2.09765625 C2.09071511 2.69594915 -5.90840086 3.34471975 -13.90234375 4.09765625 C-14.19109375 5.23203125 -14.47984375 6.36640625 -14.77734375 7.53515625 C-15.14859375 8.71078125 -15.51984375 9.88640625 -15.90234375 11.09765625 C-16.89234375 11.59265625 -16.89234375 11.59265625 -17.90234375 12.09765625 C-17.59451879 10.45094213 -17.28095141 8.80530049 -16.96484375 7.16015625 C-16.79082031 6.24363281 -16.61679687 5.32710938 -16.4375 4.3828125 C-15.90234375 2.09765625 -15.90234375 2.09765625 -14.90234375 1.09765625 C-9.91893247 0.19406851 -5.04956796 -0.03800794 0 0 Z " fill="#A8A9AA" transform="translate(38.90234375,99.90234375)"/>
<path d="M0 0 C0.33 0 0.66 0 1 0 C1 6.6 1 13.2 1 20 C-1.98773248 21.49386624 -5.0403158 21.14371602 -8.3125 21.125 C-9.62863281 21.12757812 -10.94476563 21.13015625 -12.30078125 21.1328125 C-15.35920294 21.02300644 -18.0391392 20.72160244 -21 20 C-21 19.67 -21 19.34 -21 19 C-14.60046458 18.17425349 -8.45301461 17.90911247 -2 18 C-1.34 12.06 -0.68 6.12 0 0 Z " fill="#A04645" transform="translate(112,94)"/>
<path d="M0 0 C3.89503578 -0.45291114 5.57683856 -0.28517401 8.875 1.9375 C11.72418203 6.0436741 11.47493725 9.15564006 11 14 C10.01 14.33 9.02 14.66 8 15 C7.89042969 14.38511719 7.78085938 13.77023438 7.66796875 13.13671875 C7.43013672 11.92435547 7.43013672 11.92435547 7.1875 10.6875 C6.96126953 9.48673828 6.96126953 9.48673828 6.73046875 8.26171875 C5.90621167 5.70960726 5.09274359 4.64683212 3 3 C2.01 2.67 1.02 2.34 0 2 C0 1.34 0 0.68 0 0 Z " fill="#FCF5F5" transform="translate(66,47)"/>
<path d="M0 0 C0 0.33 0 0.66 0 1 C-2.31 1 -4.62 1 -7 1 C-7 1.66 -7 2.32 -7 3 C-10.0611278 3.36676073 -13.12400085 3.71615254 -16.1875 4.0625 C-17.05181641 4.16626953 -17.91613281 4.27003906 -18.80664062 4.37695312 C-23.08881539 4.85275032 -26.79534487 5.24485649 -31 4 C-28.01782377 2.01188251 -27.01539128 1.69058875 -23.61328125 1.3671875 C-22.75669922 1.28339844 -21.90011719 1.19960937 -21.01757812 1.11328125 C-20.12490234 1.03464844 -19.23222656 0.95601563 -18.3125 0.875 C-17.43916016 0.78863281 -16.56582031 0.70226562 -15.66601562 0.61328125 C-10.41989828 0.11962122 -5.26835493 -0.08586376 0 0 Z " fill="#ACA8A7" transform="translate(107,93)"/>
<path d="M0 0 C0.07654536 4.51617599 0.10228696 8.59085217 -1 13 C-3.97 12.505 -3.97 12.505 -7 12 C-6.979375 11.2575 -6.95875 10.515 -6.9375 9.75 C-6.89438005 7.06766043 -6.89438005 7.06766043 -7.5625 4.8125 C-8 3 -8 3 -7 1 C-4.61370553 0.38812962 -2.46459429 0 0 0 Z " fill="#F2F1F0" transform="translate(112,96)"/>
<path d="M0 0 C0.33 0 0.66 0 1 0 C2.9516613 9.49153264 3.14032099 16.78163837 0 26 C-0.33 26 -0.66 26 -1 26 C-1.02892857 22.04168191 -1.04677427 18.08339083 -1.0625 14.125 C-1.07087891 12.99707031 -1.07925781 11.86914062 -1.08789062 10.70703125 C-1.09111328 9.63066406 -1.09433594 8.55429688 -1.09765625 7.4453125 C-1.10289307 6.45031738 -1.10812988 5.45532227 -1.11352539 4.43017578 C-1 2 -1 2 0 0 Z " fill="#BE5453" transform="translate(21,88)"/>
<path d="M0 0 C-8.49292126 4.41032379 -18.61004837 4.43272152 -28 5 C-28 4.34 -28 3.68 -28 3 C-25.02211984 2.49106423 -22.0430746 1.99269364 -19.0625 1.5 C-18.23169922 1.35691406 -17.40089844 1.21382813 -16.54492188 1.06640625 C-10.95396627 0.15270923 -5.66506422 -0.13719631 0 0 Z " fill="#C9C9CA" transform="translate(53,101)"/>
<path d="M0 0 C0.66 0 1.32 0 2 0 C2.67119549 1.4562545 3.33681807 2.91507867 4 4.375 C4.556875 5.59316406 4.556875 5.59316406 5.125 6.8359375 C6 9 6 9 6 11 C3.36 11 0.72 11 -2 11 C-1.34 7.37 -0.68 3.74 0 0 Z " fill="#BA3C3B" transform="translate(39,44)"/>
<path d="M0 0 C1.66519519 0.34060811 3.33157466 0.67558396 5 1 C5 1.33 5 1.66 5 2 C-0.53111654 3.58031901 -5.23940755 4.4966028 -11 4 C-11.66 3.01 -12.32 2.02 -13 1 C-16.06556598 0.26656572 -16.06556598 0.26656572 -19 0 C-19 -0.33 -19 -0.66 -19 -1 C-12.48137265 -2.50429862 -6.39594479 -1.67136829 0 0 Z " fill="#D2D2D2" transform="translate(77,106)"/>
<path d="M0 0 C0.33 0 0.66 0 1 0 C1.74805717 7.02639415 2.13794954 13.93391809 2 21 C0.00468832 18.00703247 -0.45643234 16.39565075 -1.0625 12.9375 C-1.6778309 9.35212948 -1.6778309 9.35212948 -3 6 C-2.125 4 -2.125 4 -1 2 C-0.67 1.34 -0.34 0.68 0 0 Z " fill="#C26666" transform="translate(22,63)"/>
<path d="M0 0 C8.25 0 16.5 0 25 0 C25 0.33 25 0.66 25 1 C23.2984375 1.2165625 23.2984375 1.2165625 21.5625 1.4375 C18.19222799 1.61171478 18.19222799 1.61171478 17 3 C14.66702567 3.04092937 12.33294775 3.04241723 10 3 C10 2.67 10 2.34 10 2 C6.7 2 3.4 2 0 2 C0 1.34 0 0.68 0 0 Z " fill="#B8B9B9" transform="translate(39,100)"/>
<path d="M0 0 C2.31 0 4.62 0 7 0 C7.66 1.65 8.32 3.3 9 5 C6.10765685 5.82638376 4.11257569 6 1 6 C0.67 4.02 0.34 2.04 0 0 Z " fill="#CE7371" transform="translate(53,11)"/>
<path d="M0 0 C-1.134375 0.28875 -2.26875 0.5775 -3.4375 0.875 C-4.613125 1.24625 -5.78875 1.6175 -7 2 C-7.33 2.66 -7.66 3.32 -8 4 C-10.97 4 -13.94 4 -17 4 C-17.33 3.34 -17.66 2.68 -18 2 C-15.69 2 -13.38 2 -11 2 C-11 1.34 -11 0.68 -11 0 C-3.57142857 -1.28571429 -3.57142857 -1.28571429 0 0 Z " fill="#CECFCE" transform="translate(111,94)"/>
<path d="M0 0 C0.33 0 0.66 0 1 0 C0.67 3.63 0.34 7.26 0 11 C0.99 11 1.98 11 3 11 C3 11.66 3 12.32 3 13 C0.03 13 -2.94 13 -6 13 C-5.01 12.01 -4.02 11.02 -3 10 C-2.00011074 7.50981988 -2.00011074 7.50981988 -1.3125 4.8125 C-1.06113281 3.91144531 -0.80976562 3.01039062 -0.55078125 2.08203125 C-0.36902344 1.39496094 -0.18726563 0.70789062 0 0 Z " fill="#F8E3E2" transform="translate(35,57)"/>
<path d="M0 0 C0.33 0 0.66 0 1 0 C1.33 2.64 1.66 5.28 2 8 C2.33 8 2.66 8 3 8 C3.18451025 17.41002278 3.18451025 17.41002278 2 22 C1.67 22 1.34 22 1 22 C0.00137301 14.63512596 -0.10331031 7.42686315 0 0 Z " fill="#751C1C" transform="translate(7,14)"/>
<path d="M0 0 C0.33 0.99 0.66 1.98 1 3 C-6.92 3.495 -6.92 3.495 -15 4 C-14.67 3.01 -14.34 2.02 -14 1 C-9.27616037 0.34843591 -4.78025483 -0.11950637 0 0 Z " fill="#DFDFDF" transform="translate(53,109)"/>
<path d="M0 0 C1.27875 -0.061875 2.5575 -0.12375 3.875 -0.1875 C4.95394531 -0.23970703 4.95394531 -0.23970703 6.0546875 -0.29296875 C6.69664063 -0.19628906 7.33859375 -0.09960938 8 0 C8.66 0.99 9.32 1.98 10 3 C4.0885256 3.77313045 -1.1314592 4.14819277 -7 3 C-7 2.67 -7 2.34 -7 2 C-4.69 2 -2.38 2 0 2 C0 1.34 0 0.68 0 0 Z " fill="#CDCDCD" transform="translate(92,107)"/>
<path d="M0 0 C0 0.99 0 1.98 0 3 C-5.52967941 3.71033431 -10.49983036 4.30267176 -16 3 C-16 2.67 -16 2.34 -16 2 C-10.51324804 0.13216954 -5.77807024 -0.2358396 0 0 Z " fill="#D2D2D2" transform="translate(64,108)"/>
<path d="M0 0 C2.97 0 5.94 0 9 0 C9 0.99 9 1.98 9 3 C3.39436958 3.82622671 -1.42289352 4.06795656 -7 3 C-7 2.67 -7 2.34 -7 2 C-4.69 2 -2.38 2 0 2 C0 1.34 0 0.68 0 0 Z " fill="#BDBDBD" transform="translate(83,108)"/>
<path d="M0 0 C0.33 0 0.66 0 1 0 C1.22893297 3.03336186 1.36475845 5.97465051 1 9 C-1 11.0625 -1 11.0625 -3 12 C-3.34833144 7.12335991 -2.41685712 4.22949995 0 0 Z " fill="#C8C9CA" transform="translate(24,106)"/>
<path d="M0 0 C0.33 0 0.66 0 1 0 C1 6.27 1 12.54 1 19 C0.01 18.67 -0.98 18.34 -2 18 C-1.34 12.06 -0.68 6.12 0 0 Z " fill="#C46C69" transform="translate(112,94)"/>
<path d="M0 0 C2.31 0 4.62 0 7 0 C7.33 0.66 7.66 1.32 8 2 C1.23514355 3.6120509 -5.04958914 4.26618595 -12 4 C-12 3.67 -12 3.34 -12 3 C-8.04 2.34 -4.08 1.68 0 1 C0 0.67 0 0.34 0 0 Z " fill="#C3C3C3" transform="translate(49,106)"/>
<path d="M0 0 C1.99954746 -0.04254356 4.00041636 -0.04080783 6 0 C6.33 0.33 6.66 0.66 7 1 C9.32817964 1.36760731 11.6618385 1.70241581 14 2 C14 2.33 14 2.66 14 3 C6.08 3.495 6.08 3.495 -2 4 C-1.01 3.34 -0.02 2.68 1 2 C0.67 1.34 0.34 0.68 0 0 Z " fill="#AAAAAA" transform="translate(59,98)"/>
<path d="M0 0 C-0.33 0.99 -0.66 1.98 -1 3 C-6.12583611 3.10251672 -10.94997778 3.03590199 -16 2 C-16 1.67 -16 1.34 -16 1 C-10.61509359 0.08342019 -5.45769811 -0.11138159 0 0 Z " fill="#DDDDDD" transform="translate(74,101)"/>
<path d="M0 0 C0 0.33 0 0.66 0 1 C-2.31 1 -4.62 1 -7 1 C-7 1.66 -7 2.32 -7 3 C-9.31 3 -11.62 3 -14 3 C-14.33 2.01 -14.66 1.02 -15 0 C-9.62374766 -0.84888195 -5.34629602 -1.0024305 0 0 Z " fill="#CFCFCF" transform="translate(91,98)"/>
<path d="M0 0 C-4.87058675 2.51926901 -8.49053291 3.10395221 -14 3 C-13.67 2.01 -13.34 1.02 -13 0 C-4.57142857 -1.28571429 -4.57142857 -1.28571429 0 0 Z " fill="#DFDFDF" transform="translate(90,106)"/>
<path d="M0 0 C6.93 0.495 6.93 0.495 14 1 C14 1.33 14 1.66 14 2 C9.05 2.33 4.1 2.66 -1 3 C-0.67 2.01 -0.34 1.02 0 0 Z " fill="#7A201F" transform="translate(90,114)"/>
<path d="M0 0 C1.6396875 0.0928125 1.6396875 0.0928125 3.3125 0.1875 C3.3125 0.8475 3.3125 1.5075 3.3125 2.1875 C0.0125 2.5175 -3.2875 2.8475 -6.6875 3.1875 C-3.6875 0.1875 -3.6875 0.1875 0 0 Z " fill="#771C1C" transform="translate(75.6875,115.8125)"/>
<path d="M0 0 C2 3 2 3 2 6 C4.97 6.495 4.97 6.495 8 7 C8 7.33 8 7.66 8 8 C5.36 8 2.72 8 0 8 C0 5.36 0 2.72 0 0 Z " fill="#8B3535" transform="translate(23,93)"/>
<path d="M0 0 C0.33 0.99 0.66 1.98 1 3 C-1.52053595 4.26026798 -2.8542098 3.91874445 -5.625 3.5625 C-6.85089844 3.40974609 -6.85089844 3.40974609 -8.1015625 3.25390625 C-8.72804688 3.17011719 -9.35453125 3.08632812 -10 3 C-10 2.67 -10 2.34 -10 2 C-6.7 1.34 -3.4 0.68 0 0 Z " fill="#DCDCDC" transform="translate(111,93)"/>
<path d="M0 0 C0 0.33 0 0.66 0 1 C-2.31 1 -4.62 1 -7 1 C-7.33 1.66 -7.66 2.32 -8 3 C-10.31 2.34 -12.62 1.68 -15 1 C-15 0.67 -15 0.34 -15 0 C-9.77254141 -1.2063366 -5.23471686 -0.75612577 0 0 Z " fill="#C8C8C8" transform="translate(73,105)"/>
<path d="M0 0 C1.98 0 3.96 0 6 0 C5.34 1.98 4.68 3.96 4 6 C3.67 5.01 3.34 4.02 3 3 C2.34 3 1.68 3 1 3 C0.67 2.01 0.34 1.02 0 0 Z " fill="#BE5654" transform="translate(78,11)"/>
</svg>
